<svg width="156" height="25" viewBox="0 0 156 25" fill="none" xmlns="http://www.w3.org/2000/svg">
<path fill-rule="evenodd" clip-rule="evenodd" d="M0.119629 14.0008L0.541316 14.299H0.599785V13.6602L0.119629 13.9976V14.0008Z" fill="#06DBDB"/>
<path fill-rule="evenodd" clip-rule="evenodd" d="M0.527832 14.2903V13.711L7.79183 8.60649V11.1939H15.2478C17.1358 11.1939 18.1278 10.3299 18.1278 9.08186C18.1278 7.76986 17.1358 6.90586 15.2478 6.90586H10.2119L18.4242 1.13494C22.6867 1.93371 25.2958 4.65506 25.2958 8.85786C25.2958 12.1859 23.4718 14.7459 20.3678 15.9939L25.7758 23.8659H17.3918L12.7838 16.8259H7.79183V19.4274L0.527832 14.2903ZM27.2466 0.889858V23.8659H49.6466V17.7859H34.3826V15.2579H47.8226V9.33786H34.3826V6.96986H49.6466V0.889858H27.2466ZM51.5903 23.8659H72.4863V17.7859H58.8543V0.889858H51.5903V23.8659ZM86.1166 0.505859C77.9566 0.505859 72.1646 5.49786 72.1646 12.3779C72.1646 19.2579 77.9566 24.2499 86.1166 24.2499C94.2766 24.2499 100.069 19.2579 100.069 12.3779C100.069 5.49786 94.2766 0.505859 86.1166 0.505859ZM86.1166 6.74586C89.7326 6.74586 92.6446 8.85786 92.6446 12.3779C92.6446 15.8979 89.7326 18.0099 86.1166 18.0099C82.5006 18.0099 79.5886 15.8979 79.5886 12.3779C79.5886 8.85786 82.5006 6.74586 86.1166 6.74586ZM97.8028 23.8659H105.483L107.211 20.2179H118.667L120.363 23.8659H128.395L117.323 0.889858H108.875L97.8028 23.8659ZM112.971 7.99386L116.011 14.5219H109.899L112.971 7.99386ZM129.34 23.8659H141.628C150.236 23.8659 155.42 19.3859 155.42 12.3779C155.42 5.36986 150.236 0.889858 141.628 0.889858H129.34V23.8659ZM136.444 6.96986H141.628C145.916 6.96986 148.22 9.11386 148.22 12.3779C148.22 15.6419 145.916 17.7859 141.628 17.7859H136.444V6.96986Z" fill="#101C42"/>
</svg>
